<svg width="27" height="26" viewBox="0 0 27 26" fill="none" xmlns="http://www.w3.org/2000/svg">
<path d="M21.25 25C20.5625 25 19.974 24.7552 19.4844 24.2656C18.9948 23.776 18.75 23.1875 18.75 22.5V21.125C17.3125 20.8333 16.1198 20.1198 15.1719 18.9844C14.224 17.849 13.75 16.5208 13.75 15V8.75C13.75 8.0625 13.9896 7.47396 14.4688 6.98438C14.9479 6.49479 15.5417 6.25 16.25 6.25H23.75C24.4375 6.25 25.026 6.49479 25.5156 6.98438C26.0052 7.47396 26.25 8.0625 26.25 8.75V15C26.25 16.5208 25.776 17.849 24.8281 18.9844C23.8802 20.1198 22.6875 20.8333 21.25 21.125V22.5H25V25H21.25ZM22.1875 13.75H23.75V8.75H16.25V11.25H17.1875C17.875 11.25 18.526 11.4062 19.1406 11.7188C19.7552 12.0312 20.2708 12.4583 20.6875 13C20.8542 13.25 21.0729 13.4375 21.3438 13.5625C21.6146 13.6875 21.8958 13.75 22.1875 13.75ZM20 18.75C20.8125 18.75 21.5417 18.5156 22.1875 18.0469C22.8333 17.5781 23.2812 16.9792 23.5312 16.25H22.1875C21.5 16.25 20.849 16.099 20.2344 15.7969C19.6198 15.4948 19.1042 15.0625 18.6875 14.5C18.5 14.2708 18.276 14.0885 18.0156 13.9531C17.7552 13.8177 17.4792 13.75 17.1875 13.75H16.25V15C16.25 16.0625 16.6094 16.9531 17.3281 17.6719C18.0469 18.3906 18.9375 18.75 20 18.75ZM7.5 25.625L5 23.75V18.75H3.75C3.0625 18.75 2.47396 18.5052 1.98438 18.0156C1.49479 17.526 1.25 16.9375 1.25 16.25V6.875C0.895833 6.875 0.598958 6.75521 0.359375 6.51562C0.119792 6.27604 0 5.97917 0 5.625C0 5.27083 0.119792 4.97396 0.359375 4.73438C0.598958 4.49479 0.895833 4.375 1.25 4.375H5V2.5H4.375C4.02083 2.5 3.72396 2.38021 3.48438 2.14062C3.24479 1.90104 3.125 1.60417 3.125 1.25C3.125 0.895833 3.24479 0.598958 3.48438 0.359375C3.72396 0.119792 4.02083 0 4.375 0H8.125C8.47917 0 8.77604 0.119792 9.01562 0.359375C9.25521 0.598958 9.375 0.895833 9.375 1.25C9.375 1.60417 9.25521 1.90104 9.01562 2.14062C8.77604 2.38021 8.47917 2.5 8.125 2.5H7.5V4.375H11.25C11.6042 4.375 11.901 4.49479 12.1406 4.73438C12.3802 4.97396 12.5 5.27083 12.5 5.625C12.5 5.97917 12.3802 6.27604 12.1406 6.51562C11.901 6.75521 11.6042 6.875 11.25 6.875V16.25C11.25 16.9375 11.0052 17.526 10.5156 18.0156C10.026 18.5052 9.4375 18.75 8.75 18.75H7.5V25.625ZM3.75 16.25H8.75V14.375H6.5625C6.3125 14.375 6.09375 14.2812 5.90625 14.0938C5.71875 13.9062 5.625 13.6875 5.625 13.4375C5.625 13.1875 5.71875 12.9688 5.90625 12.7812C6.09375 12.5938 6.3125 12.5 6.5625 12.5H8.75V10.625H6.5625C6.3125 10.625 6.09375 10.5312 5.90625 10.3438C5.71875 10.1562 5.625 9.9375 5.625 9.6875C5.625 9.4375 5.71875 9.21875 5.90625 9.03125C6.09375 8.84375 6.3125 8.75 6.5625 8.75H8.75V6.875H3.75V16.25Z" fill="#8D204C"/>
</svg>
