<svg width="145" height="32" viewBox="0 0 145 32" fill="none" xmlns="http://www.w3.org/2000/svg">
<path d="M21.25 28.1875C20.5625 28.1875 19.974 27.9427 19.4844 27.4531C18.9948 26.9635 18.75 26.375 18.75 25.6875V24.3125C17.3125 24.0208 16.1198 23.3073 15.1719 22.1719C14.224 21.0365 13.75 19.7083 13.75 18.1875V11.9375C13.75 11.25 13.9896 10.6615 14.4688 10.1719C14.9479 9.68229 15.5417 9.4375 16.25 9.4375H23.75C24.4375 9.4375 25.026 9.68229 25.5156 10.1719C26.0052 10.6615 26.25 11.25 26.25 11.9375V18.1875C26.25 19.7083 25.776 21.0365 24.8281 22.1719C23.8802 23.3073 22.6875 24.0208 21.25 24.3125V25.6875H25V28.1875H21.25ZM22.1875 16.9375H23.75V11.9375H16.25V14.4375H17.1875C17.875 14.4375 18.526 14.5938 19.1406 14.9062C19.7552 15.2188 20.2708 15.6458 20.6875 16.1875C20.8542 16.4375 21.0729 16.625 21.3438 16.75C21.6146 16.875 21.8958 16.9375 22.1875 16.9375ZM20 21.9375C20.8125 21.9375 21.5417 21.7031 22.1875 21.2344C22.8333 20.7656 23.2812 20.1667 23.5312 19.4375H22.1875C21.5 19.4375 20.849 19.2865 20.2344 18.9844C19.6198 18.6823 19.1042 18.25 18.6875 17.6875C18.5 17.4583 18.276 17.276 18.0156 17.1406C17.7552 17.0052 17.4792 16.9375 17.1875 16.9375H16.25V18.1875C16.25 19.25 16.6094 20.1406 17.3281 20.8594C18.0469 21.5781 18.9375 21.9375 20 21.9375ZM7.5 28.8125L5 26.9375V21.9375H3.75C3.0625 21.9375 2.47396 21.6927 1.98438 21.2031C1.49479 20.7135 1.25 20.125 1.25 19.4375V10.0625C0.895833 10.0625 0.598958 9.94271 0.359375 9.70312C0.119792 9.46354 0 9.16667 0 8.8125C0 8.45833 0.119792 8.16146 0.359375 7.92188C0.598958 7.68229 0.895833 7.5625 1.25 7.5625H5V5.6875H4.375C4.02083 5.6875 3.72396 5.56771 3.48438 5.32812C3.24479 5.08854 3.125 4.79167 3.125 4.4375C3.125 4.08333 3.24479 3.78646 3.48438 3.54688C3.72396 3.30729 4.02083 3.1875 4.375 3.1875H8.125C8.47917 3.1875 8.77604 3.30729 9.01562 3.54688C9.25521 3.78646 9.375 4.08333 9.375 4.4375C9.375 4.79167 9.25521 5.08854 9.01562 5.32812C8.77604 5.56771 8.47917 5.6875 8.125 5.6875H7.5V7.5625H11.25C11.6042 7.5625 11.901 7.68229 12.1406 7.92188C12.3802 8.16146 12.5 8.45833 12.5 8.8125C12.5 9.16667 12.3802 9.46354 12.1406 9.70312C11.901 9.94271 11.6042 10.0625 11.25 10.0625V19.4375C11.25 20.125 11.0052 20.7135 10.5156 21.2031C10.026 21.6927 9.4375 21.9375 8.75 21.9375H7.5V28.8125ZM3.75 19.4375H8.75V17.5625H6.5625C6.3125 17.5625 6.09375 17.4688 5.90625 17.2812C5.71875 17.0938 5.625 16.875 5.625 16.625C5.625 16.375 5.71875 16.1562 5.90625 15.9688C6.09375 15.7812 6.3125 15.6875 6.5625 15.6875H8.75V13.8125H6.5625C6.3125 13.8125 6.09375 13.7188 5.90625 13.5312C5.71875 13.3438 5.625 13.125 5.625 12.875C5.625 12.625 5.71875 12.4062 5.90625 12.2188C6.09375 12.0312 6.3125 11.9375 6.5625 11.9375H8.75V10.0625H3.75V19.4375Z" fill="#8D204C"/>
<path d="M35.8278 25V7.53906H42.762C44.0399 7.53906 45.1058 7.73223 45.96 8.11855C46.8141 8.50488 47.4546 9.03499 47.8814 9.7089C48.3082 10.3828 48.5216 11.154 48.5216 12.0224C48.5216 12.7133 48.3846 13.3146 48.1105 13.826C47.8364 14.3375 47.4636 14.7557 46.9921 15.0807C46.5205 15.4056 45.9844 15.6362 45.3838 15.7727V15.9494C46.0403 15.9764 46.6591 16.1628 47.24 16.5087C47.821 16.8546 48.2931 17.3386 48.6564 17.9609C49.0197 18.5832 49.2013 19.326 49.2013 20.1894C49.2013 21.1066 48.9759 21.9284 48.525 22.6547C48.0741 23.3811 47.4043 23.9535 46.5153 24.3721C45.6264 24.7907 44.524 25 43.2081 25H35.8278ZM39.4087 22.0566H42.4976C43.549 22.0566 44.3154 21.854 44.7968 21.4487C45.2782 21.0434 45.5189 20.5103 45.5189 19.8496C45.5189 19.3565 45.4 18.9197 45.1622 18.5393C44.9244 18.1589 44.5867 17.8604 44.1493 17.6437C43.7118 17.427 43.1918 17.3186 42.5895 17.3186H39.4087V22.0566ZM39.4087 14.874H42.2272C42.7383 14.874 43.196 14.7826 43.6005 14.5998C44.0049 14.417 44.3239 14.1559 44.5575 13.8163C44.7911 13.4768 44.9079 13.0717 44.9079 12.6009C44.9079 11.9654 44.6822 11.4493 44.2308 11.0524C43.7794 10.6555 43.135 10.4571 42.2975 10.4571H39.4087V14.874ZM56.9516 25.2559C55.6142 25.2559 54.4612 24.9821 53.4926 24.4343C52.524 23.8866 51.7801 23.1088 51.2608 22.101C50.7415 21.0932 50.4819 19.8984 50.4819 18.5167C50.4819 17.1687 50.7399 15.9862 51.2559 14.9691C51.7719 13.952 52.5017 13.1586 53.4454 12.5889C54.3891 12.0192 55.499 11.7344 56.7751 11.7344C57.6307 11.7344 58.4302 11.8707 59.1735 12.1434C59.9168 12.416 60.5691 12.8272 61.1304 13.3769C61.6917 13.9266 62.1301 14.6173 62.4456 15.449C62.7611 16.2807 62.9188 17.2577 62.9188 18.3801V19.3666H51.9242V17.155H61.2062L59.5636 17.7479C59.5636 17.0658 59.4594 16.473 59.2511 15.9695C59.0427 15.4661 58.7341 15.0756 58.3252 14.7979C57.9163 14.5203 57.408 14.3815 56.8004 14.3815C56.1928 14.3815 55.6773 14.5221 55.254 14.8033C54.8308 15.0846 54.5087 15.4661 54.2877 15.948C54.0668 16.4299 53.9563 16.9777 53.9563 17.5916V19.1486C53.9563 19.9064 54.0832 20.543 54.3368 21.0585C54.5905 21.574 54.9473 21.9612 55.4072 22.2203C55.8671 22.4793 56.4006 22.6088 57.0076 22.6088C57.4177 22.6088 57.7905 22.5505 58.1259 22.4337C58.4613 22.3169 58.7497 22.1439 58.9911 21.9149C59.2325 21.6858 59.4162 21.4035 59.5423 21.0679L62.7205 21.6557C62.5089 22.3794 62.142 23.0114 61.6196 23.5514C61.0973 24.0915 60.4428 24.5106 59.6563 24.8087C58.8697 25.1069 57.9681 25.2559 56.9516 25.2559ZM64.7229 25V11.8984H68.129V14.1799H68.2696C68.5076 13.3724 68.9097 12.7611 69.4759 12.3461C70.0422 11.9311 70.6927 11.7236 71.4276 11.7236C71.6091 11.7236 71.8042 11.7338 72.0127 11.7543C72.2212 11.7748 72.4048 11.8037 72.5636 11.841V14.981C72.4083 14.9274 72.1813 14.8839 71.8828 14.8506C71.5843 14.8172 71.305 14.8005 71.0448 14.8005C70.5084 14.8005 70.027 14.9166 69.6005 15.1488C69.174 15.381 68.8402 15.7024 68.599 16.113C68.3578 16.5237 68.2373 17.0005 68.2373 17.5436V25H64.7229ZM74.0722 25V11.8984H77.4782V14.1799H77.6188C77.8568 13.3724 78.2589 12.7611 78.8251 12.3461C79.3914 11.9311 80.0419 11.7236 80.7768 11.7236C80.9583 11.7236 81.1534 11.7338 81.3619 11.7543C81.5704 11.7748 81.754 11.8037 81.9128 11.841V14.981C81.7575 14.9274 81.5306 14.8839 81.232 14.8506C80.9335 14.8172 80.6542 14.8005 80.394 14.8005C79.8576 14.8005 79.3762 14.9166 78.9497 15.1488C78.5232 15.381 78.1894 15.7024 77.9482 16.113C77.7071 16.5237 77.5865 17.0005 77.5865 17.5436V25H74.0722ZM83.5299 29.6385L84.3348 26.9877L84.7663 27.1032C85.2424 27.2253 85.6625 27.2588 86.0267 27.2038C86.391 27.1488 86.6842 27.0003 86.9063 26.7582C87.1285 26.5162 87.2628 26.1776 87.3092 25.7425L87.4121 25.0387L82.4904 11.8984H86.223L88.4235 18.6997C88.695 19.5586 88.9144 20.4171 89.0817 21.2751C89.249 22.1332 89.4396 23.03 89.6535 23.9657H88.8357C89.0496 23.03 89.2612 22.1302 89.4703 21.2661C89.6794 20.402 89.9243 19.5466 90.2049 18.6997L92.5112 11.8984H96.2003L90.6363 26.5457C90.3706 27.2494 90.0301 27.8597 89.6147 28.3764C89.1994 28.8931 88.6833 29.2916 88.0667 29.5718C87.45 29.8521 86.7023 29.9922 85.8236 29.9922C85.36 29.9922 84.9239 29.9585 84.5155 29.8912C84.107 29.8238 83.7785 29.7396 83.5299 29.6385ZM103.957 25.2541C102.56 25.2541 101.343 25.0393 100.308 24.6099C99.2724 24.1804 98.4655 23.5446 97.8872 22.7023C97.309 21.86 97.0015 20.8198 96.965 19.5817H100.446C100.492 20.1704 100.667 20.6618 100.972 21.056C101.277 21.4501 101.683 21.7454 102.193 21.9419C102.702 22.1384 103.277 22.2366 103.919 22.2366C104.556 22.2366 105.112 22.1436 105.587 21.9575C106.062 21.7714 106.431 21.5105 106.695 21.1746C106.959 20.8388 107.091 20.4508 107.091 20.0108C107.091 19.6087 106.973 19.2729 106.736 19.0036C106.5 18.7344 106.158 18.5033 105.711 18.3105C105.263 18.1177 104.721 17.9459 104.083 17.7951L102.163 17.3177C100.685 16.9572 99.5274 16.3922 98.6892 15.6226C97.851 14.853 97.4318 13.8331 97.4318 12.5629C97.4318 11.511 97.7165 10.5906 98.2857 9.80173C98.8549 9.01282 99.6338 8.39942 100.622 7.96153C101.611 7.52363 102.737 7.30469 104.001 7.30469C105.293 7.30469 106.42 7.52574 107.381 7.96786C108.341 8.40997 109.09 9.02282 109.627 9.80642C110.164 10.59 110.442 11.4928 110.461 12.5149H107.003C106.935 11.8152 106.635 11.273 106.104 10.8883C105.572 10.5037 104.86 10.3113 103.969 10.3113C103.363 10.3113 102.845 10.3985 102.415 10.5729C101.986 10.7472 101.659 10.9872 101.436 11.2927C101.212 11.5983 101.1 11.9464 101.1 12.3372C101.1 12.7652 101.23 13.1204 101.491 13.4029C101.752 13.6854 102.095 13.9154 102.522 14.0929C102.949 14.2704 103.407 14.4177 103.896 14.5349L105.471 14.9204C106.206 15.0876 106.89 15.3122 107.524 15.5943C108.158 15.8763 108.713 16.2222 109.188 16.6319C109.664 17.0416 110.034 17.5268 110.298 18.0875C110.563 18.6482 110.695 19.2947 110.695 20.027C110.695 21.0856 110.428 22.0072 109.894 22.7918C109.36 23.5764 108.591 24.183 107.586 24.6114C106.582 25.0398 105.372 25.2541 103.957 25.2541ZM115.774 21.1624V16.9353H116.306L120.591 11.8984H124.654L118.994 18.4692H118.165L115.774 21.1624ZM112.585 25V7.53906H116.099V25H112.585ZM120.762 25L116.835 19.2543L119.183 16.7598L124.906 25H120.762ZM125.907 25V11.8984H129.421V25H125.907ZM127.663 10.1906C127.134 10.1906 126.68 10.0137 126.302 9.65984C125.925 9.30602 125.736 8.88143 125.736 8.38608C125.736 7.88061 125.925 7.45303 126.302 7.10334C126.68 6.75365 127.134 6.5788 127.663 6.5788C128.194 6.5788 128.649 6.75342 129.028 7.10266C129.406 7.4519 129.595 7.8796 129.595 8.38574C129.595 8.88177 129.406 9.30658 129.028 9.66018C128.649 10.0138 128.194 10.1906 127.663 10.1906ZM135.325 17.4142V25H131.81V11.8984H135.129L135.185 15.1691H134.974C135.318 14.0763 135.84 13.2307 136.54 12.6322C137.24 12.0336 138.144 11.7344 139.25 11.7344C140.158 11.7344 140.949 11.9318 141.624 12.3268C142.298 12.7217 142.822 13.2875 143.195 14.0243C143.569 14.7611 143.755 15.642 143.755 16.667V25H140.241V17.2795C140.241 16.4657 140.031 15.8275 139.611 15.3648C139.192 14.9021 138.611 14.6707 137.87 14.6707C137.376 14.6707 136.937 14.7789 136.553 14.9954C136.169 15.2119 135.868 15.5238 135.651 15.9313C135.433 16.3387 135.325 16.833 135.325 17.4142Z" fill="#8D204C"/>
</svg>
